<svg xmlns="http://www.w3.org/2000/svg" viewBox="0 0 800 700">
  <style>
    .title { font: bold 14px sans-serif; }
    .class { font: 12px sans-serif; }
    .relationship { stroke: black; fill: none; }
  </style>
  
  <!-- Main class -->
  <rect x="10" y="10" width="180" height="80" fill="lightblue" stroke="black"/>
  <text x="20" y="30" class="title">Main</text>
  <line x1="10" y1="40" x2="190" y2="40" stroke="black"/>
  <text x="20" y="60" class="class">+ main(args: String[])</text>

  <!-- Repository class -->
  <rect x="250" y="10" width="220" height="380" fill="lightgreen" stroke="black"/>
  <text x="260" y="30" class="title">Repository</text>
  <line x1="250" y1="40" x2="470" y2="40" stroke="black"/>
  <text x="260" y="60" class="class">+ GITLET_DIR: File</text>
  <text x="260" y="80" class="class">+ OBJECTS_DIR: File</text>
  <text x="260" y="100" class="class">+ HEAD: File</text>
  <line x1="250" y1="110" x2="470" y2="110" stroke="black"/>
  <text x="260" y="130" class="class">+ init()</text>
  <text x="260" y="150" class="class">+ add(filename: String)</text>
  <text x="260" y="170" class="class">+ commit(message: String)</text>
  <text x="260" y="190" class="class">+ rm(filename: String)</text>
  <text x="260" y="210" class="class">+ log()</text>
  <text x="260" y="230" class="class">+ global-log()</text>
  <text x="260" y="250" class="class">+ find(message: String)</text>
  <text x="260" y="270" class="class">+ status()</text>
  <text x="260" y="290" class="class">+ checkout(...)</text>
  <text x="260" y="310" class="class">+ branch(branchName: String)</text>
  <text x="260" y="330" class="class">+ rm-branch(branchName: String)</text>
  <text x="260" y="350" class="class">+ reset(commitId: String)</text>
  <text x="260" y="370" class="class">+ merge(branchName: String)</text>

  <!-- Commit class -->
  <rect x="500" y="10" width="180" height="160" fill="lightyellow" stroke="black"/>
  <text x="510" y="30" class="title">Commit</text>
  <line x1="500" y1="40" x2="680" y2="40" stroke="black"/>
  <text x="510" y="60" class="class">- message: String</text>
  <text x="510" y="80" class="class">- timestamp: Date</text>
  <text x="510" y="100" class="class">- parent: String</text>
  <text x="510" y="120" class="class">- trackedFiles: Map&lt;String, String&gt;</text>
  <line x1="500" y1="130" x2="680" y2="130" stroke="black"/>
  <text x="510" y="150" class="class">+ Commit(message, parent)</text>

  <!-- StagingArea class -->
  <rect x="250" y="410" width="220" height="120" fill="lightpink" stroke="black"/>
  <text x="260" y="430" class="title">StagingArea</text>
  <line x1="250" y1="440" x2="470" y2="440" stroke="black"/>
  <text x="260" y="460" class="class">- addedFiles: Map&lt;String, String&gt;</text>
  <text x="260" y="480" class="class">- removedFiles: Set&lt;String&gt;</text>
  <line x1="250" y1="490" x2="470" y2="490" stroke="black"/>
  <text x="260" y="510" class="class">+ add(filename: String)</text>
  <text x="260" y="530" class="class">+ remove(filename: String)</text>

  <!-- Blob class -->
  <rect x="500" y="410" width="180" height="100" fill="lightgray" stroke="black"/>
  <text x="510" y="430" class="title">Blob</text>
  <line x1="500" y1="440" x2="680" y2="440" stroke="black"/>
  <text x="510" y="460" class="class">- content: byte[]</text>
  <line x1="500" y1="470" x2="680" y2="470" stroke="black"/>
  <text x="510" y="490" class="class">+ Blob(content: byte[])</text>

  <!-- Relationships -->
  <line x1="190" y1="50" x2="250" y2="50" class="relationship" marker-end="url(#arrowhead)"/>
  <line x1="470" y1="50" x2="500" y2="50" class="relationship" marker-end="url(#arrowhead)"/>
  <line x1="360" y1="390" x2="360" y2="410" class="relationship" marker-end="url(#arrowhead)"/>
  <line x1="470" y1="350" x2="500" y2="410" class="relationship" marker-end="url(#arrowhead)"/>

  <!-- Arrowhead definition -->
  <defs>
    <marker id="arrowhead" markerWidth="10" markerHeight="7" refX="0" refY="3.5" orient="auto">
      <polygon points="0 0, 10 3.5, 0 7" />
    </marker>
  </defs>
</svg>
